<svg xmlns="http://www.w3.org/2000/svg" version="1.1" xmlns:xlink="http://www.w3.org/1999/xlink" xmlns:svgjs="http://svgjs.com/svgjs" width="400" height="200" preserveAspectRatio="none" viewBox="0 0 400 200"><g mask="url(&quot;#SvgjsMask1356&quot;)" fill="none"><rect width="400" height="200" x="0" y="0" fill="rgba(255, 0, 0, 1)"></rect><path d="M234.57-27.63C202.55-13.16 215.88 88.26 155.39 88.47 94.89 88.68 40.28 20.01-2.98 18.47" stroke="rgba(124, 5, 5, 1)" stroke-width="2"></path><path d="M254.18-29.28C220.56-20.34 231.41 72.22 159.16 72.38 86.91 72.54 18.52 18.9-30.87 18.38" stroke="rgba(124, 5, 5, 1)" stroke-width="2"></path><path d="M309.37-8.35C261.48 14.08 261.55 161.35 192.09 167.69 122.63 174.03 133.45 142.69 74.81 142.69 16.17 142.69-12.49 167.55-42.47 167.69" stroke="rgba(124, 5, 5, 1)" stroke-width="2"></path><path d="M188.33-13.59C160.68-8.86 179.32 51.93 103.01 59.31 26.7 66.69-18.79 152.09-67.63 155.31" stroke="rgba(124, 5, 5, 1)" stroke-width="2"></path><path d="M216.27-36.03C186.85-29.84 203.83 41.76 128.9 46.63 53.98 51.5 0.68 109.63-45.83 110.63" stroke="rgba(124, 5, 5, 1)" stroke-width="2"></path></g><defs><mask id="SvgjsMask1356"><rect width="400" height="200" fill="#ffffff"></rect></mask></defs></svg>