<svg xmlns="http://www.w3.org/2000/svg" version="1.1" xmlns:xlink="http://www.w3.org/1999/xlink" xmlns:svgjs="http://svgjs.com/svgjs" width="400" height="200" preserveAspectRatio="none" viewBox="0 0 400 200"><g mask="url(&quot;#SvgjsMask1357&quot;)" fill="none"><rect width="400" height="200" x="0" y="0" fill="rgba(255, 0, 0, 1)"></rect><path d="M209.54 236.72C254.79 218.85 264.98 81.27 325.61 80.51 386.24 79.75 405.85 162 441.68 166.51" stroke="rgba(124, 5, 5, 1)" stroke-width="2"></path><path d="M179.56 214.53C224.37 206.47 232.65 104.56 316.57 94.57 400.49 84.58 414.26 19.24 453.58 16.57" stroke="rgba(124, 5, 5, 1)" stroke-width="2"></path><path d="M156.45 227.92C185.56 222.55 169.56 153.99 245.06 149.42 320.57 144.85 375.02 84.48 422.29 83.42" stroke="rgba(124, 5, 5, 1)" stroke-width="2"></path><path d="M112.79 238.66C162.33 212.94 159.22 56.91 230.69 49.03 302.15 41.15 289.64 74.03 348.58 74.03 407.53 74.03 436.35 49.17 466.48 49.03" stroke="rgba(124, 5, 5, 1)" stroke-width="2"></path><path d="M75.05 236.71C127.66 234.99 165.3 156.18 268.61 153.83 371.91 151.48 411.35 92.58 462.16 91.83" stroke="rgba(124, 5, 5, 1)" stroke-width="2"></path></g><defs><mask id="SvgjsMask1357"><rect width="400" height="200" fill="#ffffff"></rect></mask></defs></svg>